# xmcd
# 
# Track frame offsets:
#     150
#     31057
#     53053
#     71803
#     81960
#     107531
#     128990
#     151306
#     170919
#     189050
#     217105
#     238380
# 
# Disc length: 3430
# 
# Revision: 1
# Processed by: cddbd v1.5.2PL0 Copyright (c) Steve Scherf et al.
# Submitted via: BonkEnc v1.0.8
# 
DISCID=a70d640c
DTITLE=Tommy Castro - Gratitude
DYEAR=2003
DGENRE=Blues
TTITLE0=It Serves You Right To Suffer
TTITLE1=Bad Case Of Love
TTITLE2=Tulane
TTITLE3=I Wants To Be Loved
TTITLE4=Come Back Baby
TTITLE5=Lovey Dovey
TTITLE6=Everybody Wants To Go To Heaven
TTITLE7=I Feel That Old Feeling Coming On
TTITLE8=I Take What I Want
TTITLE9=When Me Left Eye Jumps
TTITLE10=44
TTITLE11=I Found A Love
EXTD=YEAR: 2003
EXTT0=
EXTT1=
EXTT2=
EXTT3=
EXTT4=
EXTT5=
EXTT6=
EXTT7=
EXTT8=
EXTT9=
EXTT10=
EXTT11=
PLAYORDER=
